<svg xmlns="http://www.w3.org/2000/svg" width="382" height="388" viewBox="0 0 382 388" role="img" aria-labelledby="title desc">
  <title id="title">乐宅.Life LOGO一比一矢量描摹</title>
  <desc id="desc">由确认母版逐像素转换为SVG路径，结构、字形、间距、颜色与外部留白保持不变。</desc>
  <metadata>source=01-独立图标.png; sha256=cd64e3f04a7fdea1ffb1c9d4ef63fedcef5da0367811088c8a0968db2f0ea00d; method=exact-horizontal-pixel-runs; background=#000000; backgroundAlpha=0; colors=271; runs=2761; foregroundPixels=100585</metadata>
  <g shape-rendering="crispEdges">
    <path fill="#C65D3B" d="M79 33h223v1h-223zM74 34h234v1h-234zM71 35h240v1h-240zM68 36h246v1h-246zM65 37h252v1h-252zM63 38h256v1h-256zM61 39h260v1h-260zM59 40h264v1h-264zM58 41h266v1h-266zM56 42h270v1h-270zM55 43h272v1h-272zM54 44h274v1h-274zM52 45h277v1h-277zM51 46h280v1h-280zM50 47h282v1h-282zM49 48h284v1h-284zM48 49h286v1h-286zM47 50h288v1h-288zM46 51h290v1h-290zM45 52h291v1h-291zM45 53h292v1h-292zM44 54h294v1h-294zM43 55h296v1h-296zM42 56h298v1h-298zM42 57h298v1h-298zM41 58h300v1h-300zM40 59h302v1h-302zM40 60h302v1h-302zM39 61h304v1h-304zM39 62h304v1h-304zM38 63h306v1h-306zM38 64h63v1h-63zM112 64h232v1h-232zM37 65h61v1h-61zM116 65h229v1h-229zM37 66h59v1h-59zM118 66h227v1h-227zM36 67h58v1h-58zM120 67h225v1h-225zM36 68h56v1h-56zM121 68h225v1h-225zM36 69h55v1h-55zM123 69h223v1h-223zM35 70h55v1h-55zM124 70h223v1h-223zM35 71h53v1h-53zM125 71h222v1h-222zM35 72h52v1h-52zM126 72h221v1h-221zM34 73h53v1h-53zM127 73h221v1h-221zM34 74h52v1h-52zM128 74h220v1h-220zM34 75h51v1h-51zM128 75h220v1h-220zM34 76h51v1h-51zM129 76h219v1h-219zM34 77h50v1h-50zM129 77h219v1h-219zM33 78h51v1h-51zM130 78h219v1h-219zM33 79h50v1h-50zM130 79h219v1h-219zM33 80h50v1h-50zM131 80h218v1h-218zM33 81h49v1h-49zM131 81h218v1h-218zM33 82h49v1h-49zM131 82h218v1h-218zM33 83h49v1h-49zM132 83h217v1h-217zM33 84h49v1h-49zM132 84h217v1h-217zM33 85h48v1h-48zM132 85h217v1h-217zM33 86h48v1h-48zM132 86h217v1h-217zM33 87h48v1h-48zM132 87h217v1h-217zM33 88h48v1h-48zM132 88h217v1h-217zM33 89h48v1h-48zM132 89h217v1h-217zM33 90h48v1h-48zM132 90h217v1h-217zM33 91h48v1h-48zM132 91h217v1h-217zM33 92h48v1h-48zM132 92h217v1h-217zM33 93h48v1h-48zM132 93h217v1h-217zM33 94h48v1h-48zM132 94h217v1h-217zM33 95h48v1h-48zM132 95h217v1h-217zM33 96h48v1h-48zM132 96h217v1h-217zM33 97h48v1h-48zM132 97h217v1h-217zM33 98h48v1h-48zM132 98h217v1h-217zM33 99h48v1h-48zM132 99h217v1h-217zM33 100h48v1h-48zM132 100h217v1h-217zM33 101h48v1h-48zM132 101h217v1h-217zM33 102h48v1h-48zM132 102h217v1h-217zM33 103h48v1h-48zM132 103h217v1h-217zM33 104h48v1h-48zM132 104h217v1h-217zM33 105h48v1h-48zM132 105h217v1h-217zM33 106h48v1h-48zM132 106h217v1h-217zM33 107h48v1h-48zM132 107h217v1h-217zM33 108h48v1h-48zM132 108h217v1h-217zM33 109h48v1h-48zM132 109h217v1h-217zM33 110h48v1h-48zM132 110h217v1h-217zM33 111h48v1h-48zM132 111h217v1h-217zM33 112h48v1h-48zM132 112h217v1h-217zM33 113h48v1h-48zM132 113h217v1h-217zM33 114h48v1h-48zM132 114h217v1h-217zM33 115h48v1h-48zM132 115h217v1h-217zM33 116h48v1h-48zM132 116h217v1h-217zM33 117h48v1h-48zM132 117h217v1h-217zM33 118h48v1h-48zM132 118h217v1h-217zM33 119h48v1h-48zM132 119h217v1h-217zM33 120h48v1h-48zM132 120h217v1h-217zM33 121h48v1h-48zM132 121h217v1h-217zM33 122h48v1h-48zM132 122h217v1h-217zM33 123h48v1h-48zM132 123h217v1h-217zM33 124h48v1h-48zM132 124h217v1h-217zM33 125h48v1h-48zM132 125h217v1h-217zM33 126h48v1h-48zM132 126h217v1h-217zM33 127h48v1h-48zM132 127h217v1h-217zM33 128h48v1h-48zM132 128h217v1h-217zM33 129h48v1h-48zM132 129h217v1h-217zM33 130h48v1h-48zM132 130h217v1h-217zM33 131h48v1h-48zM132 131h217v1h-217zM33 132h48v1h-48zM132 132h217v1h-217zM33 133h48v1h-48zM132 133h217v1h-217zM33 134h48v1h-48zM132 134h217v1h-217zM33 135h48v1h-48zM132 135h217v1h-217zM33 136h48v1h-48zM132 136h217v1h-217zM33 137h48v1h-48zM132 137h217v1h-217zM33 138h48v1h-48zM132 138h217v1h-217zM33 139h48v1h-48zM132 139h217v1h-217zM33 140h48v1h-48zM132 140h217v1h-217zM33 141h48v1h-48zM132 141h217v1h-217zM33 142h48v1h-48zM132 142h217v1h-217zM33 143h48v1h-48zM132 143h217v1h-217zM33 144h48v1h-48zM132 144h217v1h-217zM33 145h48v1h-48zM132 145h217v1h-217zM33 146h48v1h-48zM132 146h217v1h-217zM33 147h48v1h-48zM132 147h217v1h-217zM33 148h48v1h-48zM132 148h217v1h-217zM33 149h48v1h-48zM132 149h217v1h-217zM33 150h48v1h-48zM132 150h217v1h-217zM33 151h48v1h-48zM132 151h217v1h-217zM33 152h48v1h-48zM132 152h217v1h-217zM33 153h48v1h-48zM132 153h217v1h-217zM33 154h48v1h-48zM132 154h217v1h-217zM33 155h48v1h-48zM132 155h217v1h-217zM33 156h48v1h-48zM132 156h217v1h-217zM33 157h48v1h-48zM132 157h217v1h-217zM33 158h48v1h-48zM132 158h217v1h-217zM33 159h48v1h-48zM132 159h217v1h-217zM33 160h48v1h-48zM132 160h217v1h-217zM33 161h48v1h-48zM132 161h217v1h-217zM33 162h48v1h-48zM132 162h217v1h-217zM33 163h48v1h-48zM132 163h217v1h-217zM33 164h48v1h-48zM132 164h217v1h-217zM33 165h48v1h-48zM132 165h217v1h-217zM33 166h48v1h-48zM132 166h217v1h-217zM33 167h48v1h-48zM132 167h217v1h-217zM33 168h48v1h-48zM132 168h217v1h-217zM33 169h48v1h-48zM132 169h217v1h-217zM33 170h48v1h-48zM132 170h217v1h-217zM33 171h48v1h-48zM132 171h217v1h-217zM33 172h48v1h-48zM132 172h217v1h-217zM33 173h48v1h-48zM132 173h217v1h-217zM33 174h48v1h-48zM132 174h217v1h-217zM33 175h48v1h-48zM132 175h217v1h-217zM33 176h48v1h-48zM132 176h217v1h-217zM33 177h48v1h-48zM132 177h217v1h-217zM33 178h48v1h-48zM132 178h217v1h-217zM33 179h48v1h-48zM132 179h217v1h-217zM33 180h48v1h-48zM132 180h217v1h-217zM33 181h48v1h-48zM132 181h217v1h-217zM33 182h48v1h-48zM132 182h217v1h-217zM33 183h48v1h-48zM132 183h217v1h-217zM33 184h48v1h-48zM132 184h217v1h-217zM33 185h48v1h-48zM132 185h217v1h-217zM33 186h48v1h-48zM132 186h217v1h-217zM33 187h48v1h-48zM132 187h217v1h-217zM33 188h48v1h-48zM132 188h217v1h-217zM33 189h48v1h-48zM132 189h217v1h-217zM33 190h48v1h-48zM132 190h217v1h-217zM33 191h48v1h-48zM132 191h217v1h-217zM33 192h48v1h-48zM132 192h217v1h-217zM33 193h48v1h-48zM132 193h217v1h-217zM33 194h48v1h-48zM132 194h217v1h-217zM33 195h48v1h-48zM132 195h217v1h-217zM33 196h48v1h-48zM132 196h217v1h-217zM33 197h48v1h-48zM132 197h217v1h-217zM33 198h48v1h-48zM132 198h217v1h-217zM33 199h48v1h-48zM132 199h217v1h-217zM33 200h48v1h-48zM132 200h217v1h-217zM33 201h48v1h-48zM132 201h217v1h-217zM33 202h48v1h-48zM132 202h217v1h-217zM33 203h48v1h-48zM132 203h217v1h-217zM33 204h48v1h-48zM132 204h217v1h-217zM33 205h48v1h-48zM132 205h217v1h-217zM33 206h48v1h-48zM132 206h217v1h-217zM33 207h48v1h-48zM132 207h217v1h-217zM33 208h48v1h-48zM132 208h217v1h-217zM33 209h48v1h-48zM132 209h217v1h-217zM33 210h48v1h-48zM132 210h217v1h-217zM33 211h48v1h-48zM132 211h217v1h-217zM33 212h48v1h-48zM132 212h217v1h-217zM33 213h48v1h-48zM132 213h217v1h-217zM33 214h48v1h-48zM132 214h217v1h-217zM33 215h48v1h-48zM132 215h217v1h-217zM33 216h48v1h-48zM132 216h217v1h-217zM33 217h48v1h-48zM132 217h217v1h-217zM33 218h48v1h-48zM132 218h217v1h-217zM33 219h48v1h-48zM132 219h217v1h-217zM33 220h48v1h-48zM132 220h217v1h-217zM33 221h48v1h-48zM132 221h217v1h-217zM33 222h48v1h-48zM132 222h217v1h-217zM33 223h48v1h-48zM132 223h217v1h-217zM33 224h48v1h-48zM132 224h217v1h-217zM33 225h48v1h-48zM132 225h217v1h-217zM33 226h48v1h-48zM132 226h217v1h-217zM33 227h48v1h-48zM132 227h217v1h-217zM33 228h48v1h-48zM132 228h217v1h-217zM33 229h48v1h-48zM132 229h217v1h-217zM33 230h48v1h-48zM132 230h217v1h-217zM33 231h48v1h-48zM132 231h217v1h-217zM33 232h48v1h-48zM132 232h217v1h-217zM33 233h48v1h-48zM132 233h217v1h-217zM33 234h48v1h-48zM132 234h217v1h-217zM33 235h48v1h-48zM132 235h217v1h-217zM33 236h48v1h-48zM132 236h217v1h-217zM33 237h48v1h-48zM132 237h217v1h-217zM33 238h48v1h-48zM132 238h217v1h-217zM33 239h48v1h-48zM132 239h217v1h-217zM33 240h48v1h-48zM132 240h217v1h-217zM33 241h48v1h-48zM132 241h217v1h-217zM33 242h48v1h-48zM132 242h217v1h-217zM33 243h48v1h-48zM132 243h217v1h-217zM33 244h48v1h-48zM132 244h217v1h-217zM33 245h48v1h-48zM132 245h217v1h-217zM33 246h48v1h-48zM132 246h217v1h-217zM33 247h48v1h-48zM132 247h217v1h-217zM33 248h48v1h-48zM132 248h217v1h-217zM33 249h48v1h-48zM132 249h217v1h-217zM33 250h48v1h-48zM132 250h217v1h-217zM33 251h48v1h-48zM132 251h217v1h-217zM33 252h48v1h-48zM132 252h217v1h-217zM33 253h48v1h-48zM132 253h217v1h-217zM33 254h48v1h-48zM132 254h217v1h-217zM33 255h48v1h-48zM132 255h217v1h-217zM33 256h48v1h-48zM132 256h217v1h-217zM33 257h48v1h-48zM132 257h217v1h-217zM33 258h48v1h-48zM132 258h217v1h-217zM33 259h48v1h-48zM132 259h217v1h-217zM33 260h48v1h-48zM132 260h217v1h-217zM33 261h48v1h-48zM132 261h217v1h-217zM33 262h48v1h-48zM132 262h217v1h-217zM33 263h48v1h-48zM132 263h217v1h-217zM33 264h48v1h-48zM132 264h217v1h-217zM33 265h48v1h-48zM132 265h217v1h-217zM33 266h48v1h-48zM132 266h217v1h-217zM33 267h48v1h-48zM132 267h217v1h-217zM33 268h48v1h-48zM132 268h217v1h-217zM33 269h48v1h-48zM132 269h217v1h-217zM33 270h48v1h-48zM132 270h217v1h-217zM33 271h48v1h-48zM132 271h217v1h-217zM33 272h48v1h-48zM132 272h217v1h-217zM33 273h48v1h-48zM132 273h217v1h-217zM33 274h48v1h-48zM132 274h217v1h-217zM33 275h48v1h-48zM132 275h217v1h-217zM33 276h48v1h-48zM227 276h122v1h-122zM33 277h48v1h-48zM231 277h118v1h-118zM33 278h48v1h-48zM233 278h116v1h-116zM33 279h48v1h-48zM235 279h114v1h-114zM33 280h48v1h-48zM236 280h113v1h-113zM33 281h48v1h-48zM238 281h42v1h-42zM291 281h58v1h-58zM33 282h48v1h-48zM239 282h38v1h-38zM294 282h55v1h-55zM33 283h48v1h-48zM240 283h35v1h-35zM296 283h53v1h-53zM33 284h48v1h-48zM241 284h32v1h-32zM297 284h52v1h-52zM33 285h48v1h-48zM242 285h30v1h-30zM298 285h51v1h-51zM33 286h48v1h-48zM242 286h29v1h-29zM299 286h50v1h-50zM33 287h48v1h-48zM243 287h27v1h-27zM300 287h49v1h-49zM33 288h48v1h-48zM244 288h25v1h-25zM301 288h48v1h-48zM33 289h48v1h-48zM244 289h25v1h-25zM302 289h47v1h-47zM33 290h48v1h-48zM245 290h23v1h-23zM302 290h47v1h-47zM33 291h48v1h-48zM245 291h23v1h-23zM303 291h46v1h-46zM33 292h48v1h-48zM245 292h22v1h-22zM303 292h46v1h-46zM33 293h48v1h-48zM246 293h21v1h-21zM304 293h45v1h-45zM33 294h48v1h-48zM246 294h21v1h-21zM304 294h45v1h-45zM33 295h48v1h-48zM246 295h20v1h-20zM304 295h45v1h-45zM33 296h48v1h-48zM247 296h19v1h-19zM304 296h45v1h-45zM33 297h48v1h-48zM247 297h19v1h-19zM305 297h44v1h-44zM33 298h48v1h-48zM247 298h19v1h-19zM305 298h44v1h-44zM33 299h48v1h-48zM247 299h19v1h-19zM305 299h44v1h-44zM33 300h48v1h-48zM247 300h19v1h-19zM305 300h44v1h-44zM33 301h48v1h-48zM247 301h19v1h-19zM305 301h44v1h-44zM33 302h49v1h-49zM247 302h19v1h-19zM305 302h44v1h-44zM33 303h49v1h-49zM247 303h19v1h-19zM304 303h45v1h-45zM33 304h49v1h-49zM247 304h19v1h-19zM304 304h45v1h-45zM33 305h49v1h-49zM247 305h19v1h-19zM304 305h45v1h-45zM33 306h50v1h-50zM246 306h20v1h-20zM304 306h45v1h-45zM33 307h50v1h-50zM246 307h21v1h-21zM304 307h45v1h-45zM33 308h50v1h-50zM246 308h21v1h-21zM303 308h46v1h-46zM33 309h51v1h-51zM245 309h23v1h-23zM303 309h46v1h-46zM34 310h50v1h-50zM245 310h23v1h-23zM302 310h46v1h-46zM34 311h51v1h-51zM245 311h24v1h-24zM302 311h46v1h-46zM34 312h51v1h-51zM244 312h25v1h-25zM301 312h47v1h-47zM34 313h52v1h-52zM244 313h26v1h-26zM300 313h48v1h-48zM34 314h53v1h-53zM243 314h28v1h-28zM299 314h48v1h-48zM35 315h53v1h-53zM242 315h30v1h-30zM298 315h49v1h-49zM35 316h54v1h-54zM241 316h32v1h-32zM297 316h50v1h-50zM35 317h55v1h-55zM240 317h35v1h-35zM295 317h51v1h-51zM35 318h56v1h-56zM239 318h38v1h-38zM293 318h53v1h-53zM36 319h56v1h-56zM238 319h42v1h-42zM289 319h57v1h-57zM36 320h58v1h-58zM237 320h108v1h-108zM36 321h59v1h-59zM235 321h110v1h-110zM37 322h60v1h-60zM234 322h111v1h-111zM37 323h62v1h-62zM232 323h112v1h-112zM38 324h64v1h-64zM229 324h115v1h-115zM38 325h305v1h-305zM39 326h304v1h-304zM39 327h303v1h-303zM40 328h301v1h-301zM40 329h301v1h-301zM41 330h299v1h-299zM42 331h298v1h-298zM42 332h297v1h-297zM43 333h295v1h-295zM44 334h293v1h-293zM45 335h291v1h-291zM45 336h291v1h-291zM46 337h289v1h-289zM47 338h287v1h-287zM48 339h285v1h-285zM49 340h283v1h-283zM50 341h280v1h-280zM52 342h277v1h-277zM53 343h275v1h-275zM54 344h273v1h-273zM55 345h270v1h-270zM57 346h267v1h-267zM58 347h264v1h-264zM60 348h260v1h-260zM62 349h256v1h-256zM64 350h252v1h-252zM67 351h247v1h-247zM69 352h242v1h-242zM73 353h234v1h-234zM79 354h222v1h-222z"/>
    <path fill="#252A28" d="M101 65h11v1h-11zM98 66h17v1h-17zM96 67h22v1h-22zM94 68h26v1h-26zM92 69h29v1h-29zM91 70h32v1h-32zM90 71h34v1h-34zM89 72h36v1h-36zM88 73h38v1h-38zM87 74h39v1h-39zM86 75h41v1h-41zM86 76h42v1h-42zM85 77h43v1h-43zM85 78h44v1h-44zM84 79h45v1h-45zM84 80h46v1h-46zM83 81h47v1h-47zM83 82h47v1h-47zM83 83h48v1h-48zM83 84h48v1h-48zM82 85h49v1h-49zM82 86h49v1h-49zM82 87h49v1h-49zM82 88h49v1h-49zM82 89h49v1h-49zM82 90h49v1h-49zM82 91h49v1h-49zM82 92h49v1h-49zM82 93h49v1h-49zM82 94h49v1h-49zM82 95h49v1h-49zM82 96h49v1h-49zM82 97h49v1h-49zM82 98h49v1h-49zM82 99h49v1h-49zM82 100h49v1h-49zM82 101h49v1h-49zM82 102h49v1h-49zM82 103h49v1h-49zM82 104h49v1h-49zM82 105h49v1h-49zM82 106h49v1h-49zM82 107h49v1h-49zM82 108h49v1h-49zM82 109h49v1h-49zM82 110h49v1h-49zM82 111h49v1h-49zM82 112h49v1h-49zM82 113h49v1h-49zM82 114h49v1h-49zM82 115h49v1h-49zM82 116h49v1h-49zM82 117h49v1h-49zM82 118h49v1h-49zM82 119h49v1h-49zM82 120h49v1h-49zM82 121h49v1h-49zM82 122h49v1h-49zM82 123h49v1h-49zM82 124h49v1h-49zM82 125h49v1h-49zM82 126h49v1h-49zM82 127h49v1h-49zM82 128h49v1h-49zM82 129h49v1h-49zM82 130h49v1h-49zM82 131h49v1h-49zM82 132h49v1h-49zM82 133h49v1h-49zM82 134h49v1h-49zM82 135h49v1h-49zM82 136h49v1h-49zM82 137h49v1h-49zM82 138h49v1h-49zM82 139h49v1h-49zM82 140h49v1h-49zM82 141h49v1h-49zM82 142h49v1h-49zM82 143h49v1h-49zM82 144h49v1h-49zM82 145h49v1h-49zM82 146h49v1h-49zM82 147h49v1h-49zM82 148h49v1h-49zM82 149h49v1h-49zM82 150h49v1h-49zM82 151h49v1h-49zM82 152h49v1h-49zM82 153h49v1h-49zM82 154h49v1h-49zM82 155h49v1h-49zM82 156h49v1h-49zM82 157h49v1h-49zM82 158h49v1h-49zM82 159h49v1h-49zM82 160h49v1h-49zM82 161h49v1h-49zM82 162h49v1h-49zM82 163h49v1h-49zM82 164h49v1h-49zM82 165h49v1h-49zM82 166h49v1h-49zM82 167h49v1h-49zM82 168h49v1h-49zM82 169h49v1h-49zM82 170h49v1h-49zM82 171h49v1h-49zM82 172h49v1h-49zM82 173h49v1h-49zM82 174h49v1h-49zM82 175h49v1h-49zM82 176h49v1h-49zM82 177h49v1h-49zM82 178h49v1h-49zM82 179h49v1h-49zM82 180h49v1h-49zM82 181h49v1h-49zM82 182h49v1h-49zM82 183h49v1h-49zM82 184h49v1h-49zM82 185h49v1h-49zM82 186h49v1h-49zM82 187h49v1h-49zM82 188h49v1h-49zM82 189h49v1h-49zM82 190h49v1h-49zM82 191h49v1h-49zM82 192h49v1h-49zM82 193h49v1h-49zM82 194h49v1h-49zM82 195h49v1h-49zM82 196h49v1h-49zM82 197h49v1h-49zM82 198h49v1h-49zM82 199h49v1h-49zM82 200h49v1h-49zM82 201h49v1h-49zM82 202h49v1h-49zM82 203h49v1h-49zM82 204h49v1h-49zM82 205h49v1h-49zM82 206h49v1h-49zM82 207h49v1h-49zM82 208h49v1h-49zM82 209h49v1h-49zM82 210h49v1h-49zM82 211h49v1h-49zM82 212h49v1h-49zM82 213h49v1h-49zM82 214h49v1h-49zM82 215h49v1h-49zM82 216h49v1h-49zM82 217h49v1h-49zM82 218h49v1h-49zM82 219h49v1h-49zM82 220h49v1h-49zM82 221h49v1h-49zM82 222h49v1h-49zM82 223h49v1h-49zM82 224h49v1h-49zM82 225h49v1h-49zM82 226h49v1h-49zM82 227h49v1h-49zM82 228h49v1h-49zM82 229h49v1h-49zM82 230h49v1h-49zM82 231h49v1h-49zM82 232h49v1h-49zM82 233h49v1h-49zM82 234h49v1h-49zM82 235h49v1h-49zM82 236h49v1h-49zM82 237h49v1h-49zM82 238h49v1h-49zM82 239h49v1h-49zM82 240h49v1h-49zM82 241h49v1h-49zM82 242h49v1h-49zM82 243h49v1h-49zM82 244h49v1h-49zM82 245h49v1h-49zM82 246h49v1h-49zM82 247h49v1h-49zM82 248h49v1h-49zM82 249h49v1h-49zM82 250h49v1h-49zM82 251h49v1h-49zM82 252h49v1h-49zM82 253h49v1h-49zM82 254h49v1h-49zM82 255h49v1h-49zM82 256h49v1h-49zM82 257h49v1h-49zM82 258h49v1h-49zM82 259h49v1h-49zM82 260h49v1h-49zM82 261h49v1h-49zM82 262h49v1h-49zM82 263h49v1h-49zM82 264h49v1h-49zM82 265h49v1h-49zM82 266h49v1h-49zM82 267h49v1h-49zM82 268h49v1h-49zM82 269h49v1h-49zM82 270h49v1h-49zM82 271h49v1h-49zM82 272h49v1h-49zM82 273h49v1h-49zM82 274h49v1h-49zM82 275h49v1h-49zM82 276h50v1h-50zM82 277h145v1h-145zM82 278h149v1h-149zM82 279h151v1h-151zM82 280h153v1h-153zM82 281h154v1h-154zM82 282h155v1h-155zM82 283h156v1h-156zM82 284h157v1h-157zM82 285h158v1h-158zM82 286h159v1h-159zM82 287h160v1h-160zM82 288h161v1h-161zM82 289h161v1h-161zM82 290h162v1h-162zM82 291h162v1h-162zM82 292h162v1h-162zM82 293h163v1h-163zM82 294h163v1h-163zM82 295h163v1h-163zM82 296h163v1h-163zM82 297h164v1h-164zM82 298h164v1h-164zM82 299h164v1h-164zM82 300h164v1h-164zM83 301h163v1h-163zM83 302h163v1h-163zM83 303h163v1h-163zM83 304h163v1h-163zM83 305h162v1h-162zM84 306h161v1h-161zM84 307h161v1h-161zM84 308h161v1h-161zM85 309h159v1h-159zM85 310h159v1h-159zM86 311h158v1h-158zM87 312h156v1h-156zM87 313h155v1h-155zM88 314h154v1h-154zM89 315h152v1h-152zM90 316h150v1h-150zM91 317h148v1h-148zM92 318h146v1h-146zM94 319h143v1h-143zM95 320h140v1h-140zM97 321h137v1h-137zM100 322h131v1h-131zM103 323h125v1h-125z"/>
    <path fill="#E7E0D5" d="M281 282h9v1h-9zM278 283h15v1h-15zM276 284h19v1h-19zM274 285h22v1h-22zM273 286h24v1h-24zM272 287h26v1h-26zM271 288h28v1h-28zM270 289h30v1h-30zM270 290h31v1h-31zM269 291h32v1h-32zM269 292h33v1h-33zM268 293h34v1h-34zM268 294h35v1h-35zM268 295h35v1h-35zM267 296h36v1h-36zM267 297h36v1h-36zM267 298h37v1h-37zM267 299h37v1h-37zM267 300h37v1h-37zM267 301h37v1h-37zM267 302h36v1h-36zM267 303h36v1h-36zM267 304h36v1h-36zM267 305h36v1h-36zM268 306h35v1h-35zM268 307h34v1h-34zM269 308h33v1h-33zM269 309h32v1h-32zM270 310h31v1h-31zM270 311h30v1h-30zM271 312h28v1h-28zM272 313h26v1h-26zM273 314h24v1h-24zM274 315h22v1h-22zM276 316h18v1h-18zM278 317h14v1h-14zM281 318h7v1h-7z"/>
    <path fill="#C55E39" fill-opacity="0.329412" d="M97 32h1v1h-1zM104 32h4v1h-4zM126 32h3v1h-3zM137 32h2v1h-2zM142 32h2v1h-2zM149 32h1v1h-1zM158 32h1v1h-1zM167 32h3v1h-3zM184 32h3v1h-3zM189 32h1v1h-1zM204 32h2v1h-2zM207 32h6v1h-6zM235 32h2v1h-2zM240 32h2v1h-2zM245 32h5v1h-5zM263 32h1v1h-1zM267 32h7v1h-7zM282 32h1v1h-1zM65 36h1v1h-1zM316 36h1v1h-1zM349 82h1v1h-1zM349 120h1v1h-1zM349 121h1v1h-1zM349 124h1v1h-1zM349 125h1v1h-1zM349 126h1v1h-1zM349 127h1v1h-1zM349 128h1v1h-1zM349 130h1v1h-1zM349 131h1v1h-1zM349 132h1v1h-1zM349 133h1v1h-1zM349 134h1v1h-1zM349 136h1v1h-1zM349 137h1v1h-1zM349 138h1v1h-1zM349 139h1v1h-1zM349 143h1v1h-1zM349 144h1v1h-1zM349 145h1v1h-1zM349 146h1v1h-1zM349 147h1v1h-1zM349 157h1v1h-1zM349 158h1v1h-1zM349 159h1v1h-1zM349 160h1v1h-1zM349 161h1v1h-1zM349 162h1v1h-1zM349 163h1v1h-1zM349 164h1v1h-1zM349 165h1v1h-1zM349 166h1v1h-1zM349 171h1v1h-1zM349 185h1v1h-1zM349 186h1v1h-1zM349 187h1v1h-1zM349 188h1v1h-1zM349 189h1v1h-1zM349 190h1v1h-1zM349 191h1v1h-1zM347 316h1v1h-1z"/>
    <path fill="#C75D3B" fill-opacity="0.321569" d="M84 32h1v1h-1zM94 32h3v1h-3zM139 32h3v1h-3zM150 32h8v1h-8zM187 32h2v1h-2zM206 32h1v1h-1zM237 32h3v1h-3zM242 32h3v1h-3zM283 32h1v1h-1zM342 59h1v1h-1zM345 65h1v1h-1zM33 74h1v1h-1zM349 129h1v1h-1zM349 135h1v1h-1zM349 140h1v1h-1zM349 141h1v1h-1zM349 142h1v1h-1zM349 167h1v1h-1zM349 168h1v1h-1zM349 169h1v1h-1zM349 170h1v1h-1zM349 172h1v1h-1zM349 173h1v1h-1zM349 174h1v1h-1zM349 175h1v1h-1zM349 176h1v1h-1zM349 177h1v1h-1zM349 178h1v1h-1zM349 179h1v1h-1zM349 180h1v1h-1zM349 184h1v1h-1zM349 192h1v1h-1zM349 195h1v1h-1zM349 196h1v1h-1zM349 197h1v1h-1zM349 198h1v1h-1zM349 199h1v1h-1zM349 200h1v1h-1zM349 201h1v1h-1zM349 202h1v1h-1zM349 203h1v1h-1zM349 204h1v1h-1zM349 213h1v1h-1zM349 214h1v1h-1zM349 217h1v1h-1zM349 218h1v1h-1zM349 219h1v1h-1zM349 220h1v1h-1zM349 221h1v1h-1zM349 222h1v1h-1zM349 223h1v1h-1zM349 224h1v1h-1zM349 225h1v1h-1zM349 226h1v1h-1zM349 227h1v1h-1zM349 228h1v1h-1zM349 287h1v1h-1zM349 288h1v1h-1zM349 300h1v1h-1z"/>
    <path fill="#C65B3B" fill-opacity="0.337255" d="M98 32h6v1h-6zM108 32h1v1h-1zM122 32h4v1h-4zM129 32h4v1h-4zM135 32h2v1h-2zM144 32h5v1h-5zM159 32h1v1h-1zM165 32h2v1h-2zM170 32h4v1h-4zM182 32h2v1h-2zM190 32h1v1h-1zM200 32h4v1h-4zM213 32h3v1h-3zM232 32h3v1h-3zM250 32h1v1h-1zM260 32h3v1h-3zM264 32h3v1h-3zM274 32h2v1h-2zM278 32h4v1h-4zM349 113h1v1h-1zM349 114h1v1h-1zM349 115h1v1h-1zM349 116h1v1h-1zM349 117h1v1h-1zM349 118h1v1h-1zM349 119h1v1h-1zM349 122h1v1h-1zM349 123h1v1h-1zM349 148h1v1h-1zM349 149h1v1h-1zM349 150h1v1h-1zM349 151h1v1h-1zM349 152h1v1h-1zM349 153h1v1h-1zM349 154h1v1h-1zM349 155h1v1h-1zM349 156h1v1h-1z"/>
    <path fill="#C55C3C" fill-opacity="0.313725" d="M83 32h1v1h-1zM85 32h1v1h-1zM89 32h1v1h-1zM93 32h1v1h-1zM284 32h13v1h-13zM48 47h1v1h-1zM35 67h1v1h-1zM349 181h1v1h-1zM349 182h1v1h-1zM349 183h1v1h-1zM349 193h1v1h-1zM349 194h1v1h-1zM349 205h1v1h-1zM349 206h1v1h-1zM349 207h1v1h-1zM349 208h1v1h-1zM349 209h1v1h-1zM349 211h1v1h-1zM349 212h1v1h-1zM349 215h1v1h-1zM349 216h1v1h-1zM349 229h1v1h-1zM349 230h1v1h-1zM349 231h1v1h-1zM349 234h1v1h-1zM349 235h1v1h-1zM349 239h1v1h-1zM349 240h1v1h-1zM349 241h1v1h-1zM349 242h1v1h-1zM349 243h1v1h-1zM349 244h1v1h-1zM349 245h1v1h-1zM349 246h1v1h-1zM349 256h1v1h-1zM349 257h1v1h-1zM349 258h1v1h-1zM349 260h1v1h-1zM349 275h1v1h-1zM349 279h1v1h-1zM349 280h1v1h-1zM349 283h1v1h-1zM349 284h1v1h-1zM349 285h1v1h-1zM349 286h1v1h-1zM349 289h1v1h-1zM349 290h1v1h-1zM349 291h1v1h-1zM349 292h1v1h-1zM349 293h1v1h-1zM349 297h1v1h-1zM349 298h1v1h-1zM349 299h1v1h-1zM349 301h1v1h-1zM349 304h1v1h-1zM348 312h1v1h-1zM346 319h1v1h-1zM343 326h1v1h-1zM325 346h1v1h-1z"/>
    <path fill="#AF5637" fill-opacity="0.776471" d="M81 97h1v1h-1zM81 98h1v1h-1zM81 105h1v1h-1zM81 106h1v1h-1zM81 107h1v1h-1zM81 116h1v1h-1zM81 117h1v1h-1zM81 118h1v1h-1zM81 121h1v1h-1zM81 122h1v1h-1zM81 123h1v1h-1zM81 124h1v1h-1zM81 125h1v1h-1zM81 126h1v1h-1zM81 127h1v1h-1zM81 128h1v1h-1zM81 129h1v1h-1zM81 130h1v1h-1zM81 159h1v1h-1zM81 173h1v1h-1zM81 174h1v1h-1zM81 175h1v1h-1zM81 176h1v1h-1zM81 177h1v1h-1zM81 178h1v1h-1zM81 179h1v1h-1zM81 180h1v1h-1zM81 181h1v1h-1zM81 206h1v1h-1zM81 207h1v1h-1zM81 208h1v1h-1zM81 209h1v1h-1zM81 210h1v1h-1zM81 211h1v1h-1zM81 214h1v1h-1zM81 215h1v1h-1zM81 216h1v1h-1zM81 217h1v1h-1zM81 218h1v1h-1zM81 254h1v1h-1zM81 255h1v1h-1zM81 256h1v1h-1zM81 257h1v1h-1zM81 258h1v1h-1zM81 259h1v1h-1zM81 260h1v1h-1zM81 261h1v1h-1zM81 262h1v1h-1zM81 263h1v1h-1zM81 264h1v1h-1zM81 265h1v1h-1zM81 266h1v1h-1zM81 267h1v1h-1zM81 268h1v1h-1zM81 269h1v1h-1zM81 277h1v1h-1zM81 278h1v1h-1zM81 280h1v1h-1zM81 281h1v1h-1zM81 282h1v1h-1zM245 308h1v1h-1zM242 314h1v1h-1zM100 323h1v1h-1zM225 324h1v1h-1z"/>
    <path fill="#49362B" fill-opacity="0.843137" d="M93 68h1v1h-1zM85 76h1v1h-1zM84 78h1v1h-1zM131 88h1v1h-1zM131 91h1v1h-1zM131 92h1v1h-1zM131 95h1v1h-1zM131 96h1v1h-1zM131 97h1v1h-1zM131 102h1v1h-1zM131 103h1v1h-1zM131 104h1v1h-1zM131 105h1v1h-1zM131 106h1v1h-1zM131 107h1v1h-1zM131 108h1v1h-1zM131 116h1v1h-1zM131 117h1v1h-1zM131 118h1v1h-1zM131 119h1v1h-1zM131 120h1v1h-1zM131 124h1v1h-1zM131 125h1v1h-1zM131 126h1v1h-1zM131 127h1v1h-1zM131 129h1v1h-1zM131 130h1v1h-1zM131 131h1v1h-1zM131 213h1v1h-1zM131 214h1v1h-1zM131 215h1v1h-1zM131 216h1v1h-1zM131 217h1v1h-1zM131 221h1v1h-1zM131 222h1v1h-1zM131 229h1v1h-1zM131 230h1v1h-1zM131 231h1v1h-1zM131 232h1v1h-1zM131 233h1v1h-1zM131 234h1v1h-1zM131 235h1v1h-1zM131 244h1v1h-1zM131 245h1v1h-1zM131 246h1v1h-1zM131 249h1v1h-1zM131 251h1v1h-1zM131 252h1v1h-1zM131 258h1v1h-1zM131 259h1v1h-1zM131 261h1v1h-1zM131 262h1v1h-1zM131 268h1v1h-1zM131 269h1v1h-1zM131 270h1v1h-1zM131 272h1v1h-1zM241 286h1v1h-1z"/>
    <path fill="#B15539" fill-opacity="0.784314" d="M126 73h1v1h-1zM83 79h1v1h-1zM81 99h1v1h-1zM81 100h1v1h-1zM81 101h1v1h-1zM81 102h1v1h-1zM81 103h1v1h-1zM81 104h1v1h-1zM81 119h1v1h-1zM81 120h1v1h-1zM81 131h1v1h-1zM81 132h1v1h-1zM81 138h1v1h-1zM81 160h1v1h-1zM81 161h1v1h-1zM81 171h1v1h-1zM81 172h1v1h-1zM81 182h1v1h-1zM81 183h1v1h-1zM81 184h1v1h-1zM81 185h1v1h-1zM81 186h1v1h-1zM81 187h1v1h-1zM81 188h1v1h-1zM81 189h1v1h-1zM81 190h1v1h-1zM81 191h1v1h-1zM81 192h1v1h-1zM81 193h1v1h-1zM81 194h1v1h-1zM81 195h1v1h-1zM81 196h1v1h-1zM81 197h1v1h-1zM81 198h1v1h-1zM81 199h1v1h-1zM81 201h1v1h-1zM81 204h1v1h-1zM81 205h1v1h-1zM81 219h1v1h-1zM81 220h1v1h-1zM81 221h1v1h-1zM81 222h1v1h-1zM81 239h1v1h-1zM81 240h1v1h-1zM81 241h1v1h-1zM81 242h1v1h-1zM81 243h1v1h-1zM81 244h1v1h-1zM81 245h1v1h-1zM81 246h1v1h-1zM81 247h1v1h-1zM81 248h1v1h-1zM81 252h1v1h-1zM81 253h1v1h-1z"/>
    <path fill="#C65C3A" fill-opacity="0.615686" d="M54 43h1v1h-1zM327 43h1v1h-1zM328 44h1v1h-1zM51 45h1v1h-1zM46 50h1v1h-1zM343 62h1v1h-1zM35 69h1v1h-1zM32 114h1v1h-1zM32 118h1v1h-1zM32 119h1v1h-1zM32 123h1v1h-1zM32 124h1v1h-1zM32 125h1v1h-1zM32 126h1v1h-1zM32 127h1v1h-1zM32 128h1v1h-1zM32 163h1v1h-1zM32 164h1v1h-1zM32 181h1v1h-1zM32 182h1v1h-1zM32 183h1v1h-1zM32 184h1v1h-1zM32 189h1v1h-1zM32 190h1v1h-1zM32 191h1v1h-1zM32 192h1v1h-1zM32 193h1v1h-1zM32 194h1v1h-1zM32 195h1v1h-1zM32 217h1v1h-1zM32 218h1v1h-1zM32 219h1v1h-1zM32 222h1v1h-1zM32 226h1v1h-1zM32 227h1v1h-1zM32 228h1v1h-1zM32 229h1v1h-1zM32 248h1v1h-1zM32 250h1v1h-1zM32 251h1v1h-1zM32 280h1v1h-1zM32 281h1v1h-1zM32 282h1v1h-1zM32 284h1v1h-1zM32 285h1v1h-1zM32 286h1v1h-1zM32 292h1v1h-1zM32 293h1v1h-1zM32 295h1v1h-1zM32 296h1v1h-1zM32 297h1v1h-1zM32 298h1v1h-1zM345 320h1v1h-1z"/>
    <path fill="#C65B3D" fill-opacity="0.196078" d="M341 57h1v1h-1zM346 67h1v1h-1zM349 79h1v1h-1zM95 355h1v1h-1zM120 355h1v1h-1zM134 355h3v1h-3zM139 355h2v1h-2zM144 355h11v1h-11zM156 355h2v1h-2zM169 355h2v1h-2zM172 355h3v1h-3zM177 355h2v1h-2zM180 355h3v1h-3zM186 355h1v1h-1zM188 355h8v1h-8zM244 355h5v1h-5zM263 355h1v1h-1zM265 355h1v1h-1zM268 355h1v1h-1zM277 355h1v1h-1z"/>
    <path fill="#C75B3A" fill-opacity="0.305882" d="M86 32h3v1h-3zM90 32h3v1h-3zM297 32h1v1h-1zM34 70h1v1h-1zM348 74h1v1h-1zM349 81h1v1h-1zM349 210h1v1h-1zM349 232h1v1h-1zM349 233h1v1h-1zM349 236h1v1h-1zM349 237h1v1h-1zM349 238h1v1h-1zM349 247h1v1h-1zM349 248h1v1h-1zM349 251h1v1h-1zM349 252h1v1h-1zM349 253h1v1h-1zM349 254h1v1h-1zM349 255h1v1h-1zM349 259h1v1h-1zM349 261h1v1h-1zM349 262h1v1h-1zM349 263h1v1h-1zM349 264h1v1h-1zM349 265h1v1h-1zM349 266h1v1h-1zM349 267h1v1h-1zM349 268h1v1h-1zM349 269h1v1h-1zM349 270h1v1h-1zM349 271h1v1h-1zM349 272h1v1h-1zM349 273h1v1h-1zM349 274h1v1h-1zM349 276h1v1h-1zM349 277h1v1h-1zM349 278h1v1h-1zM349 281h1v1h-1zM349 282h1v1h-1zM349 294h1v1h-1zM349 295h1v1h-1zM349 296h1v1h-1zM349 303h1v1h-1zM53 345h1v1h-1z"/>
    <path fill="#C55D39" fill-opacity="0.192157" d="M83 355h1v1h-1zM88 355h7v1h-7zM102 355h2v1h-2zM108 355h1v1h-1zM121 355h1v1h-1zM133 355h1v1h-1zM137 355h2v1h-2zM141 355h1v1h-1zM155 355h1v1h-1zM171 355h1v1h-1zM179 355h1v1h-1zM185 355h1v1h-1zM187 355h1v1h-1zM205 355h2v1h-2zM214 355h4v1h-4zM226 355h2v1h-2zM231 355h13v1h-13zM270 355h3v1h-3zM286 355h2v1h-2zM297 355h1v1h-1z"/>
    <path fill="#744230" fill-opacity="0.764706" d="M130 81h1v1h-1zM187 276h2v1h-2zM190 276h2v1h-2zM194 276h1v1h-1zM197 276h2v1h-2zM202 276h5v1h-5zM209 276h3v1h-3zM220 276h1v1h-1zM246 300h1v1h-1zM84 309h1v1h-1zM98 322h1v1h-1zM108 324h1v1h-1zM112 324h1v1h-1zM116 324h2v1h-2zM124 324h2v1h-2zM131 324h6v1h-6zM153 324h3v1h-3zM158 324h2v1h-2zM191 324h7v1h-7zM200 324h3v1h-3z"/>
    <path fill="#C55D3B" fill-opacity="0.623529" d="M67 36h1v1h-1zM324 41h1v1h-1zM334 49h1v1h-1zM338 54h1v1h-1zM345 67h1v1h-1zM32 120h1v1h-1zM32 121h1v1h-1zM32 122h1v1h-1zM32 129h1v1h-1zM32 130h1v1h-1zM32 135h1v1h-1zM32 137h1v1h-1zM32 138h1v1h-1zM32 141h1v1h-1zM32 142h1v1h-1zM32 143h1v1h-1zM32 144h1v1h-1zM32 145h1v1h-1zM32 146h1v1h-1zM32 147h1v1h-1zM32 152h1v1h-1zM32 153h1v1h-1zM32 154h1v1h-1zM32 177h1v1h-1zM32 178h1v1h-1zM32 179h1v1h-1zM32 180h1v1h-1zM32 231h1v1h-1zM32 232h1v1h-1zM32 233h1v1h-1zM32 234h1v1h-1zM32 235h1v1h-1zM32 236h1v1h-1zM32 239h1v1h-1zM32 244h1v1h-1zM32 247h1v1h-1zM32 283h1v1h-1zM32 287h1v1h-1zM32 288h1v1h-1zM32 289h1v1h-1zM32 290h1v1h-1zM32 291h1v1h-1zM32 294h1v1h-1z"/>
    <path fill="#7D4632" fill-opacity="0.756863" d="M99 65h1v1h-1zM131 85h1v1h-1zM246 301h1v1h-1zM243 312h1v1h-1zM88 315h1v1h-1zM107 324h1v1h-1zM163 324h1v1h-1zM166 324h5v1h-5zM175 324h5v1h-5zM181 324h10v1h-10zM204 324h6v1h-6zM211 324h3v1h-3zM216 324h3v1h-3zM222 324h2v1h-2z"/>
    <path fill="#C45D3A" fill-opacity="0.203922" d="M318 350h1v1h-1zM84 355h2v1h-2zM87 355h1v1h-1zM112 355h2v1h-2zM118 355h2v1h-2zM175 355h2v1h-2zM196 355h9v1h-9zM207 355h3v1h-3zM249 355h3v1h-3zM260 355h3v1h-3zM264 355h1v1h-1zM269 355h1v1h-1zM275 355h1v1h-1zM278 355h6v1h-6zM288 355h2v1h-2z"/>
    <path fill="#4C372D" fill-opacity="0.835294" d="M131 87h1v1h-1zM131 89h1v1h-1zM131 90h1v1h-1zM131 93h1v1h-1zM131 94h1v1h-1zM131 98h1v1h-1zM131 99h1v1h-1zM131 100h1v1h-1zM131 101h1v1h-1zM131 109h1v1h-1zM131 110h1v1h-1zM131 114h1v1h-1zM131 115h1v1h-1zM131 128h1v1h-1zM131 132h1v1h-1zM131 133h1v1h-1zM131 137h1v1h-1zM131 186h1v1h-1zM131 187h1v1h-1zM131 190h1v1h-1zM131 191h1v1h-1zM131 194h1v1h-1zM131 210h1v1h-1zM131 211h1v1h-1zM131 212h1v1h-1zM131 236h1v1h-1zM131 237h1v1h-1zM131 238h1v1h-1zM131 241h1v1h-1zM131 242h1v1h-1zM131 243h1v1h-1zM131 253h1v1h-1zM131 254h1v1h-1zM131 255h1v1h-1zM131 256h1v1h-1zM131 257h1v1h-1zM131 271h1v1h-1zM131 273h1v1h-1zM236 281h1v1h-1z"/>
    <path fill="#C55D3A" fill-opacity="0.611765" d="M32 107h1v1h-1zM32 111h1v1h-1zM32 112h1v1h-1zM32 113h1v1h-1zM32 115h1v1h-1zM32 116h1v1h-1zM32 117h1v1h-1zM32 157h1v1h-1zM32 158h1v1h-1zM32 159h1v1h-1zM32 160h1v1h-1zM32 161h1v1h-1zM32 162h1v1h-1zM32 185h1v1h-1zM32 186h1v1h-1zM32 187h1v1h-1zM32 188h1v1h-1zM32 196h1v1h-1zM32 197h1v1h-1zM32 198h1v1h-1zM32 199h1v1h-1zM32 202h1v1h-1zM32 203h1v1h-1zM32 216h1v1h-1zM32 220h1v1h-1zM32 221h1v1h-1zM32 223h1v1h-1zM32 224h1v1h-1zM32 225h1v1h-1zM32 264h1v1h-1zM32 265h1v1h-1zM32 266h1v1h-1zM32 267h1v1h-1zM32 272h1v1h-1zM32 277h1v1h-1zM32 278h1v1h-1zM32 299h1v1h-1zM32 301h1v1h-1zM32 302h1v1h-1z"/>
    <path fill="#714231" fill-opacity="0.768627" d="M107 64h1v1h-1zM134 276h1v1h-1zM186 276h1v1h-1zM192 276h2v1h-2zM199 276h3v1h-3zM212 276h4v1h-4zM219 276h1v1h-1zM221 276h1v1h-1zM245 294h1v1h-1zM109 324h1v1h-1zM113 324h3v1h-3zM118 324h1v1h-1zM120 324h4v1h-4zM126 324h5v1h-5zM141 324h2v1h-2zM144 324h1v1h-1zM150 324h3v1h-3zM198 324h2v1h-2z"/>
    <path fill="#C55C39" fill-opacity="0.345098" d="M109 32h1v1h-1zM121 32h1v1h-1zM133 32h2v1h-2zM160 32h5v1h-5zM174 32h1v1h-1zM181 32h1v1h-1zM191 32h1v1h-1zM199 32h1v1h-1zM216 32h1v1h-1zM231 32h1v1h-1zM251 32h9v1h-9zM276 32h2v1h-2zM349 83h1v1h-1zM349 89h1v1h-1zM349 93h1v1h-1zM349 105h1v1h-1zM349 108h1v1h-1zM349 109h1v1h-1zM349 110h1v1h-1zM349 111h1v1h-1zM349 112h1v1h-1z"/>
    <path fill="#AD5537" fill-opacity="0.772549" d="M123 70h1v1h-1zM81 89h1v1h-1zM81 90h1v1h-1zM81 94h1v1h-1zM81 95h1v1h-1zM81 96h1v1h-1zM81 108h1v1h-1zM81 112h1v1h-1zM81 113h1v1h-1zM81 114h1v1h-1zM81 115h1v1h-1zM81 139h1v1h-1zM81 140h1v1h-1zM81 151h1v1h-1zM81 152h1v1h-1zM81 153h1v1h-1zM81 154h1v1h-1zM81 155h1v1h-1zM81 156h1v1h-1zM81 157h1v1h-1zM81 158h1v1h-1zM81 212h1v1h-1zM81 213h1v1h-1zM81 270h1v1h-1zM81 271h1v1h-1zM81 272h1v1h-1zM81 273h1v1h-1zM81 274h1v1h-1zM81 275h1v1h-1zM81 276h1v1h-1zM81 279h1v1h-1zM81 283h1v1h-1zM245 293h1v1h-1zM81 298h1v1h-1z"/>
    <path fill="#50372C" fill-opacity="0.827451" d="M89 71h1v1h-1zM88 72h1v1h-1zM131 111h1v1h-1zM131 112h1v1h-1zM131 113h1v1h-1zM131 134h1v1h-1zM131 135h1v1h-1zM131 136h1v1h-1zM131 138h1v1h-1zM131 139h1v1h-1zM131 140h1v1h-1zM131 143h1v1h-1zM131 144h1v1h-1zM131 145h1v1h-1zM131 146h1v1h-1zM131 147h1v1h-1zM131 148h1v1h-1zM131 150h1v1h-1zM131 182h1v1h-1zM131 183h1v1h-1zM131 184h1v1h-1zM131 185h1v1h-1zM131 188h1v1h-1zM131 189h1v1h-1zM131 192h1v1h-1zM131 193h1v1h-1zM131 195h1v1h-1zM131 196h1v1h-1zM131 208h1v1h-1zM131 209h1v1h-1zM131 239h1v1h-1zM131 240h1v1h-1z"/>
    <path fill="#C65D3B" fill-opacity="0.352941" d="M110 32h2v1h-2zM119 32h2v1h-2zM175 32h1v1h-1zM179 32h2v1h-2zM192 32h4v1h-4zM197 32h2v1h-2zM217 32h1v1h-1zM230 32h1v1h-1zM310 34h1v1h-1zM42 54h1v1h-1zM40 57h1v1h-1zM32 81h1v1h-1zM349 88h1v1h-1zM349 90h1v1h-1zM349 91h1v1h-1zM349 92h1v1h-1zM349 94h1v1h-1zM349 97h1v1h-1zM349 102h1v1h-1zM349 103h1v1h-1zM349 104h1v1h-1zM349 106h1v1h-1zM349 107h1v1h-1zM340 331h1v1h-1z"/>
    <path fill="#784431" fill-opacity="0.760784" d="M104 64h1v1h-1zM108 64h1v1h-1zM189 276h1v1h-1zM195 276h2v1h-2zM207 276h2v1h-2zM223 276h1v1h-1zM245 307h1v1h-1zM85 311h1v1h-1zM89 316h1v1h-1zM101 323h1v1h-1zM110 324h2v1h-2zM137 324h4v1h-4zM156 324h2v1h-2zM160 324h3v1h-3zM203 324h1v1h-1zM210 324h1v1h-1zM214 324h2v1h-2z"/>
    <path fill="#C55D3B" fill-opacity="0.607843" d="M321 39h1v1h-1zM57 41h1v1h-1zM329 45h1v1h-1zM342 60h1v1h-1zM37 64h1v1h-1zM32 100h1v1h-1zM32 101h1v1h-1zM32 102h1v1h-1zM32 103h1v1h-1zM32 104h1v1h-1zM32 105h1v1h-1zM32 106h1v1h-1zM32 259h1v1h-1zM32 260h1v1h-1zM32 261h1v1h-1zM32 262h1v1h-1zM32 263h1v1h-1zM32 268h1v1h-1zM32 269h1v1h-1zM32 273h1v1h-1zM32 274h1v1h-1zM32 275h1v1h-1zM32 276h1v1h-1zM346 317h1v1h-1zM340 330h1v1h-1z"/>
    <path fill="#54392E" fill-opacity="0.819608" d="M127 75h1v1h-1zM131 141h1v1h-1zM131 142h1v1h-1zM131 149h1v1h-1zM131 151h1v1h-1zM131 152h1v1h-1zM131 174h1v1h-1zM131 175h1v1h-1zM131 177h1v1h-1zM131 178h1v1h-1zM131 179h1v1h-1zM131 180h1v1h-1zM131 181h1v1h-1zM131 197h1v1h-1zM131 198h1v1h-1zM131 199h1v1h-1zM131 200h1v1h-1zM131 201h1v1h-1zM131 202h1v1h-1zM131 203h1v1h-1zM131 204h1v1h-1zM131 205h1v1h-1zM131 207h1v1h-1zM131 274h1v1h-1zM243 289h1v1h-1z"/>
    <path fill="#46342C" fill-opacity="0.854902" d="M121 69h1v1h-1zM131 121h1v1h-1zM131 122h1v1h-1zM131 123h1v1h-1zM131 218h1v1h-1zM131 219h1v1h-1zM131 220h1v1h-1zM131 223h1v1h-1zM131 224h1v1h-1zM131 225h1v1h-1zM131 226h1v1h-1zM131 227h1v1h-1zM131 228h1v1h-1zM131 247h1v1h-1zM131 248h1v1h-1zM131 250h1v1h-1zM131 260h1v1h-1zM131 263h1v1h-1zM131 264h1v1h-1zM131 265h1v1h-1zM131 266h1v1h-1zM131 267h1v1h-1zM82 302h1v1h-1zM83 306h1v1h-1zM245 306h1v1h-1z"/>
    <path fill="#AA5437" fill-opacity="0.768627" d="M110 64h1v1h-1zM81 87h1v1h-1zM81 88h1v1h-1zM81 91h1v1h-1zM81 92h1v1h-1zM81 93h1v1h-1zM81 109h1v1h-1zM81 110h1v1h-1zM81 111h1v1h-1zM81 141h1v1h-1zM81 149h1v1h-1zM81 150h1v1h-1zM81 284h1v1h-1zM81 285h1v1h-1zM81 286h1v1h-1zM81 287h1v1h-1zM81 288h1v1h-1zM81 289h1v1h-1zM81 293h1v1h-1zM81 294h1v1h-1zM81 295h1v1h-1zM81 296h1v1h-1zM81 297h1v1h-1zM105 324h1v1h-1z"/>
    <path fill="#C45E3A" fill-opacity="0.360784" d="M112 32h2v1h-2zM118 32h1v1h-1zM176 32h3v1h-3zM196 32h1v1h-1zM218 32h6v1h-6zM229 32h1v1h-1zM349 84h1v1h-1zM349 85h1v1h-1zM349 86h1v1h-1zM349 87h1v1h-1zM349 95h1v1h-1zM349 96h1v1h-1zM349 98h1v1h-1zM349 99h1v1h-1zM349 100h1v1h-1zM349 101h1v1h-1z"/>
    <path fill="#6E4031" fill-opacity="0.772549" d="M105 64h2v1h-2zM135 276h5v1h-5zM185 276h1v1h-1zM216 276h3v1h-3zM222 276h1v1h-1zM231 278h1v1h-1zM82 303h1v1h-1zM240 316h1v1h-1zM229 323h1v1h-1zM119 324h1v1h-1zM143 324h1v1h-1zM145 324h5v1h-5z"/>
    <path fill="#653E30" fill-opacity="0.784314" d="M87 73h1v1h-1zM132 276h2v1h-2zM140 276h5v1h-5zM160 276h5v1h-5zM169 276h3v1h-3zM178 276h5v1h-5zM244 291h1v1h-1zM239 317h1v1h-1z"/>
    <path fill="#C65D3A" fill-opacity="0.6" d="M70 35h1v1h-1zM319 38h1v1h-1zM39 60h1v1h-1zM38 62h1v1h-1zM32 99h1v1h-1zM32 205h1v1h-1zM32 206h1v1h-1zM32 207h1v1h-1zM32 208h1v1h-1zM32 209h1v1h-1zM32 210h1v1h-1zM32 211h1v1h-1zM32 212h1v1h-1zM32 213h1v1h-1zM32 256h1v1h-1zM32 257h1v1h-1zM32 258h1v1h-1zM32 270h1v1h-1zM32 271h1v1h-1zM32 304h1v1h-1zM327 344h1v1h-1zM58 348h1v1h-1z"/>
    <path fill="#B45739" fill-opacity="0.788235" d="M81 86h1v1h-1zM81 133h1v1h-1zM81 134h1v1h-1zM81 135h1v1h-1zM81 136h1v1h-1zM81 137h1v1h-1zM81 162h1v1h-1zM81 163h1v1h-1zM81 200h1v1h-1zM81 202h1v1h-1zM81 203h1v1h-1zM81 223h1v1h-1zM81 224h1v1h-1zM81 225h1v1h-1zM81 226h1v1h-1zM81 236h1v1h-1zM81 237h1v1h-1zM81 238h1v1h-1zM81 249h1v1h-1zM81 250h1v1h-1zM81 251h1v1h-1zM230 323h1v1h-1z"/>
    <path fill="#C75E3C" fill-opacity="0.180392" d="M70 34h1v1h-1zM37 62h1v1h-1zM33 73h1v1h-1zM97 355h3v1h-3zM101 355h1v1h-1zM104 355h3v1h-3zM122 355h1v1h-1zM219 355h7v1h-7zM228 355h1v1h-1z"/>
    <path fill="#C65D3B" fill-opacity="0.619608" d="M32 131h1v1h-1zM32 132h1v1h-1zM32 133h1v1h-1zM32 134h1v1h-1zM32 136h1v1h-1zM32 139h1v1h-1zM32 140h1v1h-1zM32 155h1v1h-1zM32 156h1v1h-1zM32 237h1v1h-1zM32 238h1v1h-1zM32 240h1v1h-1zM32 241h1v1h-1zM32 242h1v1h-1zM32 243h1v1h-1zM32 245h1v1h-1zM32 246h1v1h-1zM32 249h1v1h-1zM36 323h1v1h-1z"/>
    <path fill="#623E2E" fill-opacity="0.788235" d="M113 65h1v1h-1zM118 67h1v1h-1zM131 275h1v1h-1zM145 276h3v1h-3zM154 276h3v1h-3zM158 276h2v1h-2zM165 276h4v1h-4zM172 276h3v1h-3zM177 276h1v1h-1z"/>
    <path fill="#C65E38" fill-opacity="0.211765" d="M347 70h1v1h-1zM32 79h1v1h-1zM37 326h1v1h-1zM69 353h1v1h-1zM110 355h2v1h-2zM114 355h1v1h-1zM161 355h6v1h-6zM210 355h4v1h-4zM259 355h1v1h-1z"/>
    <path fill="#B65738" fill-opacity="0.796078" d="M102 64h1v1h-1zM98 65h1v1h-1zM81 164h1v1h-1zM81 165h1v1h-1zM81 166h1v1h-1zM81 167h1v1h-1zM81 168h1v1h-1zM81 169h1v1h-1zM81 170h1v1h-1zM81 227h1v1h-1zM81 228h1v1h-1zM81 229h1v1h-1zM81 230h1v1h-1zM81 235h1v1h-1zM81 299h1v1h-1zM86 313h1v1h-1z"/>
    <path fill="#57392D" fill-opacity="0.811765" d="M131 153h1v1h-1zM131 154h1v1h-1zM131 155h1v1h-1zM131 156h1v1h-1zM131 162h1v1h-1zM131 163h1v1h-1zM131 164h1v1h-1zM131 165h1v1h-1zM131 170h1v1h-1zM131 171h1v1h-1zM131 172h1v1h-1zM131 173h1v1h-1zM131 176h1v1h-1zM131 206h1v1h-1zM233 279h1v1h-1z"/>
    <path fill="#C65C3B" fill-opacity="0.603922" d="M32 108h1v1h-1zM32 109h1v1h-1zM32 110h1v1h-1zM32 200h1v1h-1zM32 201h1v1h-1zM32 204h1v1h-1zM32 214h1v1h-1zM32 215h1v1h-1zM32 252h1v1h-1zM32 253h1v1h-1zM32 254h1v1h-1zM32 255h1v1h-1zM32 279h1v1h-1zM32 300h1v1h-1zM32 303h1v1h-1z"/>
    <path fill="#C35C3B" fill-opacity="0.184314" d="M96 355h1v1h-1zM100 355h1v1h-1zM107 355h1v1h-1zM127 355h1v1h-1zM132 355h1v1h-1zM142 355h2v1h-2zM218 355h1v1h-1zM229 355h2v1h-2zM266 355h2v1h-2zM284 355h2v1h-2z"/>
    <path fill="#C55B39" fill-opacity="0.207843" d="M86 355h1v1h-1zM158 355h2v1h-2zM168 355h1v1h-1zM183 355h2v1h-2zM252 355h1v1h-1zM273 355h2v1h-2zM276 355h1v1h-1zM291 355h1v1h-1zM295 355h2v1h-2z"/>
    <path fill="#C65C3B" fill-opacity="0.368627" d="M114 32h1v1h-1zM116 32h2v1h-2zM224 32h5v1h-5zM75 33h1v1h-1zM71 34h1v1h-1zM59 39h1v1h-1zM328 43h1v1h-1zM329 343h1v1h-1z"/>
    <path fill="#A75236" fill-opacity="0.764706" d="M84 77h1v1h-1zM131 84h1v1h-1zM81 142h1v1h-1zM81 143h1v1h-1zM81 144h1v1h-1zM81 145h1v1h-1zM81 146h1v1h-1zM81 147h1v1h-1zM81 148h1v1h-1zM81 290h1v1h-1zM81 291h1v1h-1zM81 292h1v1h-1zM91 318h1v1h-1z"/>
    <path fill="#C65C38" fill-opacity="0.141176" d="M301 32h1v1h-1zM36 64h1v1h-1zM349 78h1v1h-1zM347 317h1v1h-1zM346 320h1v1h-1zM341 330h1v1h-1zM48 341h1v1h-1zM54 346h1v1h-1zM57 348h1v1h-1zM63 351h1v1h-1zM81 355h1v1h-1z"/>
    <path fill="#804733" fill-opacity="0.756863" d="M116 66h1v1h-1zM246 299h1v1h-1zM244 310h1v1h-1zM164 324h2v1h-2zM171 324h1v1h-1zM173 324h2v1h-2zM180 324h1v1h-1zM219 324h1v1h-1zM221 324h1v1h-1z"/>
    <path fill="#5F3C2E" fill-opacity="0.796078" d="M83 80h1v1h-1zM148 276h6v1h-6zM157 276h1v1h-1zM175 276h2v1h-2zM228 277h1v1h-1z"/>
    <path fill="#5A3A2E" fill-opacity="0.803922" d="M131 86h1v1h-1zM131 157h1v1h-1zM131 158h1v1h-1zM131 159h1v1h-1zM131 160h1v1h-1zM131 161h1v1h-1zM131 166h1v1h-1zM131 167h1v1h-1zM131 168h1v1h-1zM131 169h1v1h-1z"/>
    <path fill="#C55D3A" fill-opacity="0.631373" d="M53 44h1v1h-1zM47 49h1v1h-1zM42 55h1v1h-1zM41 57h1v1h-1zM32 148h1v1h-1zM32 149h1v1h-1zM32 150h1v1h-1zM32 151h1v1h-1zM341 328h1v1h-1zM330 341h1v1h-1z"/>
    <path fill="#C55C3B" fill-opacity="0.592157" d="M78 33h1v1h-1zM333 48h1v1h-1zM45 51h1v1h-1zM40 58h1v1h-1zM32 95h1v1h-1zM32 96h1v1h-1zM32 97h1v1h-1zM32 98h1v1h-1zM324 346h1v1h-1z"/>
    <path fill="#C86747" fill-opacity="0.811765" d="M296 284h1v1h-1zM272 285h1v1h-1zM302 291h1v1h-1zM303 293h1v1h-1zM303 307h1v1h-1zM302 309h1v1h-1zM271 314h1v1h-1zM272 315h1v1h-1zM294 317h1v1h-1z"/>
    <path fill="#C55C39" fill-opacity="0.172549" d="M80 32h1v1h-1zM67 35h1v1h-1zM348 73h1v1h-1zM339 333h1v1h-1zM123 355h4v1h-4zM128 355h1v1h-1z"/>
    <path fill="#C65C3A" fill-opacity="0.584314" d="M302 33h1v1h-1zM62 38h1v1h-1zM60 39h1v1h-1zM326 42h1v1h-1zM344 64h1v1h-1zM36 66h1v1h-1zM33 77h1v1h-1zM51 343h1v1h-1z"/>
    <path fill="#C65C3A" fill-opacity="0.635294" d="M32 168h1v1h-1zM32 169h1v1h-1zM32 170h1v1h-1zM32 171h1v1h-1zM32 172h1v1h-1zM32 173h1v1h-1zM32 174h1v1h-1zM32 175h1v1h-1z"/>
    <path fill="#C75C3C" fill-opacity="0.215686" d="M117 355h1v1h-1zM253 355h3v1h-3zM290 355h1v1h-1zM292 355h3v1h-3z"/>
    <path fill="#C55D3A" fill-opacity="0.576471" d="M73 34h1v1h-1zM314 36h1v1h-1zM64 37h1v1h-1zM55 42h1v1h-1zM332 47h1v1h-1zM32 88h1v1h-1zM32 89h1v1h-1z"/>
    <path fill="#C55C3A" fill-opacity="0.647059" d="M50 46h1v1h-1zM49 47h1v1h-1zM48 48h1v1h-1zM44 53h1v1h-1zM43 54h1v1h-1zM338 333h1v1h-1zM329 342h1v1h-1z"/>
    <path fill="#C55C3A" fill-opacity="0.627451" d="M32 165h1v1h-1zM32 166h1v1h-1zM32 167h1v1h-1zM32 176h1v1h-1zM32 230h1v1h-1zM39 329h1v1h-1zM60 349h1v1h-1z"/>
    <path fill="#C45D3A" fill-opacity="0.223529" d="M45 338h1v1h-1zM59 349h1v1h-1zM115 355h2v1h-2zM256 355h3v1h-3z"/>
    <path fill="#C86B4A" fill-opacity="0.792157" d="M299 287h1v1h-1zM268 290h1v1h-1zM267 292h1v1h-1zM266 295h1v1h-1zM304 302h1v1h-1zM277 318h1v1h-1zM280 319h1v1h-1z"/>
    <path fill="#C96848" fill-opacity="0.803922" d="M289 281h1v1h-1zM271 286h1v1h-1zM270 287h1v1h-1zM269 288h1v1h-1zM267 308h1v1h-1zM299 313h1v1h-1zM297 315h1v1h-1z"/>
    <path fill="#C65C3A" fill-opacity="0.462745" d="M76 33h1v1h-1zM305 33h1v1h-1zM56 41h1v1h-1zM37 63h1v1h-1zM34 71h1v1h-1zM347 315h1v1h-1z"/>
    <path fill="#C65C3A" fill-opacity="0.529412" d="M312 35h1v1h-1zM35 68h1v1h-1zM346 69h1v1h-1zM347 72h1v1h-1zM344 323h1v1h-1zM342 327h1v1h-1z"/>
    <path fill="#C65D3A" fill-opacity="0.545098" d="M77 33h1v1h-1zM66 36h1v1h-1zM58 40h1v1h-1zM331 46h1v1h-1zM32 86h1v1h-1zM339 332h1v1h-1z"/>
    <path fill="#69402F" fill-opacity="0.776471" d="M90 70h1v1h-1zM82 83h1v1h-1zM183 276h2v1h-2zM238 318h1v1h-1zM96 321h1v1h-1z"/>
    <path fill="#C75D3B" fill-opacity="0.235294" d="M81 32h1v1h-1zM307 33h1v1h-1zM50 45h1v1h-1zM345 322h1v1h-1zM322 348h1v1h-1zM73 354h1v1h-1z"/>
    <path fill="#C15C3B" fill-opacity="0.878431" d="M119 67h1v1h-1zM81 85h1v1h-1zM240 284h1v1h-1zM83 308h1v1h-1zM95 321h1v1h-1zM227 324h1v1h-1z"/>
    <path fill="#9E5036" fill-opacity="0.756863" d="M96 66h1v1h-1zM94 67h1v1h-1zM128 76h1v1h-1zM82 82h1v1h-1zM246 298h1v1h-1zM82 304h1v1h-1z"/>
    <path fill="#C55C3B" fill-opacity="0.552941" d="M69 35h1v1h-1zM335 50h1v1h-1zM44 52h1v1h-1zM32 305h1v1h-1zM347 314h1v1h-1zM343 325h1v1h-1z"/>
    <path fill="#DAAD99" fill-opacity="0.788235" d="M279 282h1v1h-1zM293 283h1v1h-1zM267 294h1v1h-1zM266 299h1v1h-1zM266 301h1v1h-1zM303 304h1v1h-1z"/>
    <path fill="#CC6633" fill-opacity="0.039216" d="M73 33h1v1h-1zM336 50h1v1h-1zM347 69h1v1h-1zM333 340h1v1h-1zM311 353h1v1h-1zM307 354h1v1h-1z"/>
    <path fill="#CC795C" fill-opacity="0.756863" d="M288 281h1v1h-1zM278 282h1v1h-1zM301 290h1v1h-1zM266 304h1v1h-1zM282 319h1v1h-1zM287 319h1v1h-1z"/>
    <path fill="#BF5B3A" fill-opacity="0.854902" d="M111 64h1v1h-1zM92 68h1v1h-1zM243 288h1v1h-1zM81 300h1v1h-1zM84 310h1v1h-1zM103 324h1v1h-1z"/>
    <path fill="#C45D3B" fill-opacity="0.941176" d="M101 64h1v1h-1zM115 65h1v1h-1zM246 296h1v1h-1zM85 312h1v1h-1zM233 322h1v1h-1zM102 324h1v1h-1z"/>
    <path fill="#C65C3B" fill-opacity="0.423529" d="M318 37h1v1h-1zM39 59h1v1h-1zM36 65h1v1h-1zM32 82h1v1h-1zM348 311h1v1h-1zM56 347h1v1h-1z"/>
    <path fill="#C65D3B" fill-opacity="0.568627" d="M308 34h1v1h-1zM311 35h1v1h-1zM317 37h1v1h-1zM323 40h1v1h-1zM32 87h1v1h-1zM312 352h1v1h-1z"/>
    <path fill="#C55D3C" fill-opacity="0.298039" d="M47 48h1v1h-1zM349 249h1v1h-1zM349 250h1v1h-1zM349 302h1v1h-1zM344 324h1v1h-1zM338 334h1v1h-1z"/>
    <path fill="#C76343" fill-opacity="0.831373" d="M293 282h1v1h-1zM275 283h1v1h-1zM295 283h1v1h-1zM273 284h1v1h-1zM301 289h1v1h-1zM301 311h1v1h-1z"/>
    <path fill="#C75F37" fill-opacity="0.12549" d="M319 37h1v1h-1zM51 44h1v1h-1zM333 47h1v1h-1zM344 62h1v1h-1zM32 78h1v1h-1zM33 315h1v1h-1z"/>
    <path fill="#BF3F3F" fill-opacity="0.015686" d="M340 55h1v1h-1zM342 58h1v1h-1zM33 72h1v1h-1zM32 77h1v1h-1zM343 327h1v1h-1zM332 341h1v1h-1z"/>
    <path fill="#C65D3A" fill-opacity="0.494118" d="M72 34h1v1h-1zM348 76h1v1h-1zM32 84h1v1h-1zM326 345h1v1h-1zM321 348h1v1h-1zM317 350h1v1h-1z"/>
    <path fill="#C95D3C" fill-opacity="0.14902" d="M311 34h1v1h-1zM334 48h1v1h-1zM339 54h1v1h-1zM41 55h1v1h-1zM38 60h1v1h-1z"/>
    <path fill="#C65C3A" fill-opacity="0.968627" d="M230 277h1v1h-1zM243 313h1v1h-1zM228 324h1v1h-1zM43 334h1v1h-1zM56 346h1v1h-1z"/>
    <path fill="#322E29" fill-opacity="0.929412" d="M95 67h1v1h-1zM126 74h1v1h-1zM86 312h1v1h-1zM242 313h1v1h-1zM228 323h1v1h-1z"/>
    <path fill="#C35D3B" fill-opacity="0.117647" d="M321 38h1v1h-1zM335 49h1v1h-1zM32 310h1v1h-1zM324 347h1v1h-1zM80 355h1v1h-1z"/>
    <path fill="#C95F3F" fill-opacity="0.094118" d="M79 32h1v1h-1zM332 46h1v1h-1zM343 60h1v1h-1zM72 354h1v1h-1zM79 355h1v1h-1z"/>
    <path fill="#C75B3B" fill-opacity="0.25098" d="M57 40h1v1h-1zM349 80h1v1h-1zM342 328h1v1h-1zM328 344h1v1h-1zM320 349h1v1h-1z"/>
    <path fill="#BF5F3F" fill-opacity="0.031373" d="M64 36h1v1h-1zM348 72h1v1h-1zM345 323h1v1h-1zM335 338h1v1h-1zM314 352h1v1h-1z"/>
    <path fill="#8D4A34" fill-opacity="0.74902" d="M120 68h1v1h-1zM86 74h1v1h-1zM83 307h1v1h-1zM237 319h1v1h-1zM94 320h1v1h-1z"/>
    <path fill="#C55C39" fill-opacity="0.086275" d="M62 37h1v1h-1zM55 41h1v1h-1zM44 51h1v1h-1zM39 58h1v1h-1zM348 314h1v1h-1z"/>
    <path fill="#C55C3B" fill-opacity="0.505882" d="M315 36h1v1h-1zM345 66h1v1h-1zM32 306h1v1h-1zM333 339h1v1h-1zM332 340h1v1h-1z"/>
    <path fill="#954D35" fill-opacity="0.74902" d="M103 64h1v1h-1zM124 71h1v1h-1zM235 280h1v1h-1zM87 314h1v1h-1zM234 321h1v1h-1z"/>
    <path fill="#C35B3B" fill-opacity="0.219608" d="M74 33h1v1h-1zM349 306h1v1h-1zM313 352h1v1h-1zM160 355h1v1h-1zM167 355h1v1h-1z"/>
    <path fill="#C55D3B" fill-opacity="0.521569" d="M304 33h1v1h-1zM330 45h1v1h-1zM341 58h1v1h-1zM33 76h1v1h-1zM335 337h1v1h-1z"/>
    <path fill="#342F29" fill-opacity="0.913725" d="M112 65h1v1h-1zM128 77h1v1h-1zM240 285h1v1h-1zM244 309h1v1h-1zM231 322h1v1h-1z"/>
    <path fill="#BC593A" fill-opacity="0.827451" d="M130 80h1v1h-1zM225 276h1v1h-1zM236 320h1v1h-1zM97 322h1v1h-1z"/>
    <path fill="#B65839" fill-opacity="0.803922" d="M81 231h1v1h-1zM81 232h1v1h-1zM81 233h1v1h-1zM81 234h1v1h-1z"/>
    <path fill="#C96C4D" fill-opacity="0.784314" d="M292 282h1v1h-1zM294 283h1v1h-1zM297 285h1v1h-1zM266 305h1v1h-1z"/>
    <path fill="#D1886D" fill-opacity="0.74902" d="M273 285h1v1h-1zM302 292h1v1h-1zM302 308h1v1h-1zM293 317h1v1h-1z"/>
    <path fill="#BA593A" fill-opacity="0.819608" d="M85 75h1v1h-1zM246 297h1v1h-1zM246 304h1v1h-1zM226 324h1v1h-1z"/>
    <path fill="#C65D3A" fill-opacity="0.580392" d="M32 91h1v1h-1zM32 92h1v1h-1zM32 93h1v1h-1zM32 94h1v1h-1z"/>
    <path fill="#C65D3A" fill-opacity="0.984314" d="M87 72h1v1h-1zM237 281h1v1h-1zM231 323h1v1h-1zM44 335h1v1h-1z"/>
    <path fill="#D18970" fill-opacity="0.74902" d="M276 283h1v1h-1zM303 305h1v1h-1zM284 319h2v1h-2z"/>
    <path fill="#C55D3A" fill-opacity="0.956863" d="M88 71h1v1h-1zM226 276h1v1h-1zM81 301h1v1h-1zM246 305h1v1h-1z"/>
    <path fill="#C65D3A" fill-opacity="0.407843" d="M61 38h1v1h-1zM322 39h1v1h-1zM337 52h1v1h-1zM337 335h1v1h-1z"/>
    <path fill="#C65B3A" fill-opacity="0.392157" d="M344 63h1v1h-1zM347 71h1v1h-1zM32 308h1v1h-1zM74 354h1v1h-1z"/>
    <path fill="#C55C3B" fill-opacity="0.454902" d="M320 38h1v1h-1zM329 44h1v1h-1zM345 321h1v1h-1zM341 329h1v1h-1z"/>
    <path fill="#C65D3A" fill-opacity="0.513725" d="M336 51h1v1h-1zM348 310h1v1h-1zM334 338h1v1h-1zM319 349h1v1h-1z"/>
    <path fill="#C86645" fill-opacity="0.819608" d="M266 306h1v1h-1zM268 310h1v1h-1zM273 316h1v1h-1zM292 318h1v1h-1z"/>
    <path fill="#C85B3C" fill-opacity="0.164706" d="M349 307h1v1h-1zM41 333h1v1h-1zM316 351h1v1h-1zM82 355h1v1h-1z"/>
    <path fill="#E1CCBD" fill-opacity="0.886275" d="M301 291h1v1h-1zM303 303h1v1h-1zM301 309h1v1h-1zM275 316h1v1h-1z"/>
    <path fill="#C86445" fill-opacity="0.823529" d="M300 288h1v1h-1zM300 312h1v1h-1zM270 313h1v1h-1zM296 316h1v1h-1z"/>
    <path fill="#C75C3A" fill-opacity="0.376471" d="M115 32h1v1h-1zM306 33h1v1h-1zM313 35h1v1h-1zM340 56h1v1h-1z"/>
    <path fill="#C65C3C" fill-opacity="0.282353" d="M82 32h1v1h-1zM298 32h1v1h-1zM324 40h1v1h-1zM32 80h1v1h-1z"/>
    <path fill="#D3927A" fill-opacity="0.752941" d="M268 291h1v1h-1zM268 309h1v1h-1zM270 312h1v1h-1zM276 317h1v1h-1z"/>
    <path fill="#C55C3B" fill-opacity="0.486275" d="M309 34h1v1h-1zM346 318h1v1h-1zM336 336h1v1h-1zM331 341h1v1h-1z"/>
    <path fill="#C45F3A" fill-opacity="0.188235" d="M300 32h1v1h-1zM45 50h1v1h-1zM348 313h1v1h-1zM61 350h1v1h-1z"/>
    <path fill="#D4552A" fill-opacity="0.023529" d="M323 39h1v1h-1zM340 332h1v1h-1zM336 337h1v1h-1zM68 353h1v1h-1z"/>
    <path fill="#C65D3C" fill-opacity="0.247059" d="M46 339h1v1h-1zM310 353h1v1h-1zM306 354h1v1h-1z"/>
    <path fill="#C65C3B" fill-opacity="0.796078" d="M318 349h1v1h-1zM311 352h1v1h-1zM302 354h1v1h-1z"/>
    <path fill="#C65A38" fill-opacity="0.176471" d="M129 355h3v1h-3z"/>
    <path fill="#D3967E" fill-opacity="0.756863" d="M283 281h1v1h-1zM291 282h1v1h-1zM295 284h1v1h-1z"/>
    <path fill="#CF7F63" fill-opacity="0.752941" d="M282 281h1v1h-1zM267 293h1v1h-1zM274 316h1v1h-1z"/>
    <path fill="#CC5533" fill-opacity="0.058824" d="M49 342h1v1h-1zM78 355h1v1h-1zM300 355h1v1h-1z"/>
    <path fill="#E4D7CB" fill-opacity="0.945098" d="M280 282h1v1h-1zM297 286h1v1h-1zM267 295h1v1h-1z"/>
    <path fill="#C65C3B" fill-opacity="0.843137" d="M54 345h1v1h-1zM78 354h1v1h-1zM301 354h1v1h-1z"/>
    <path fill="#C65C3B" fill-opacity="0.670588" d="M337 334h1v1h-1zM43 335h1v1h-1zM76 354h1v1h-1z"/>
    <path fill="#E4D9CC" fill-opacity="0.956863" d="M298 287h1v1h-1zM268 308h1v1h-1zM288 318h1v1h-1z"/>
    <path fill="#E2CABB" fill-opacity="0.87451" d="M296 285h1v1h-1zM277 317h1v1h-1zM280 318h1v1h-1z"/>
    <path fill="#D18D74" fill-opacity="0.74902" d="M270 288h1v1h-1zM266 303h1v1h-1zM267 307h1v1h-1z"/>
    <path fill="#D69E87" fill-opacity="0.764706" d="M271 287h1v1h-1zM296 315h1v1h-1zM290 318h1v1h-1z"/>
    <path fill="#CA6F4F" fill-opacity="0.780392" d="M298 286h1v1h-1zM304 301h1v1h-1zM288 319h1v1h-1z"/>
    <path fill="#874933" fill-opacity="0.752941" d="M242 287h1v1h-1zM241 315h1v1h-1zM90 317h1v1h-1z"/>
    <path fill="#D69C84" fill-opacity="0.760784" d="M272 286h1v1h-1zM300 311h1v1h-1zM273 315h1v1h-1z"/>
    <path fill="#CD775A" fill-opacity="0.760784" d="M269 289h1v1h-1zM301 310h1v1h-1zM269 311h1v1h-1z"/>
    <path fill="#C65C3B" fill-opacity="0.776471" d="M35 320h1v1h-1zM49 341h1v1h-1zM68 352h1v1h-1z"/>
    <path fill="#C85F3C" fill-opacity="0.2" d="M38 328h1v1h-1zM47 340h1v1h-1zM109 355h1v1h-1z"/>
    <path fill="#C55D3A" fill-opacity="0.784314" d="M41 332h1v1h-1zM320 348h1v1h-1zM316 350h1v1h-1z"/>
    <path fill="#C55D3B" fill-opacity="0.909804" d="M33 310h1v1h-1zM38 326h1v1h-1zM39 328h1v1h-1z"/>
    <path fill="#CB7152" fill-opacity="0.772549" d="M274 284h1v1h-1zM304 299h1v1h-1zM304 300h1v1h-1z"/>
    <path fill="#D6A28C" fill-opacity="0.768627" d="M266 298h1v1h-1zM266 302h1v1h-1zM279 318h1v1h-1z"/>
    <path fill="#E3D3C6" fill-opacity="0.921569" d="M277 283h1v1h-1zM303 297h1v1h-1zM269 310h1v1h-1z"/>
    <path fill="#C55D3B" fill-opacity="0.537255" d="M52 44h1v1h-1zM339 55h1v1h-1zM41 56h1v1h-1z"/>
    <path fill="#C65D3B" fill-opacity="0.439216" d="M33 75h1v1h-1zM330 342h1v1h-1zM323 347h1v1h-1z"/>
    <path fill="#C45C3A" fill-opacity="0.901961" d="M127 74h1v1h-1zM238 282h1v1h-1zM244 311h1v1h-1z"/>
    <path fill="#3B312A" fill-opacity="0.890196" d="M82 84h1v1h-1zM239 284h1v1h-1zM235 320h1v1h-1z"/>
    <path fill="#C15C39" fill-opacity="0.866667" d="M82 81h1v1h-1zM232 278h1v1h-1zM82 305h1v1h-1z"/>
    <path fill="#3E322B" fill-opacity="0.878431" d="M129 79h1v1h-1zM93 319h1v1h-1zM102 323h1v1h-1z"/>
    <path fill="#C45D3A" fill-opacity="0.290196" d="M49 46h1v1h-1zM338 53h1v1h-1zM349 305h1v1h-1z"/>
    <path fill="#C75D3A" fill-opacity="0.447059" d="M38 61h1v1h-1zM33 314h1v1h-1zM64 351h1v1h-1z"/>
    <path fill="#C55D3A" fill-opacity="0.662745" d="M336 52h1v1h-1zM336 335h1v1h-1zM55 346h1v1h-1z"/>
    <path fill="#C35C3B" fill-opacity="0.890196" d="M122 69h1v1h-1zM131 83h1v1h-1zM239 283h1v1h-1z"/>
    <path fill="#272A27" fill-opacity="0.984314" d="M115 66h1v1h-1zM245 305h1v1h-1zM99 322h1v1h-1z"/>
    <path fill="#41322A" fill-opacity="0.866667" d="M100 65h1v1h-1zM97 66h1v1h-1zM245 295h1v1h-1z"/>
    <path fill="#C55D3B" fill-opacity="0.384314" d="M63 37h1v1h-1zM343 61h1v1h-1zM346 68h1v1h-1z"/>
    <path fill="#FF7F00" fill-opacity="0.007843" d="M78 32h1v1h-1zM58 39h1v1h-1zM349 310h1v1h-1z"/>
    <path fill="#C86442" fill-opacity="0.839216" d="M280 281h1v1h-1zM290 281h1v1h-1zM269 312h1v1h-1z"/>
    <path fill="#BF553F" fill-opacity="0.047059" d="M317 36h1v1h-1zM331 45h1v1h-1zM334 339h1v1h-1z"/>
    <path fill="#CB7051" fill-opacity="0.776471" d="M281 281h1v1h-1zM304 298h1v1h-1zM303 306h1v1h-1z"/>
    <path fill="#C85B36" fill-opacity="0.054902" d="M308 33h1v1h-1zM35 66h1v1h-1zM344 325h1v1h-1z"/>
    <path fill="#C55C3A" fill-opacity="0.560784" d="M303 33h1v1h-1zM34 72h1v1h-1zM348 77h1v1h-1z"/>
    <path fill="#DEC2B1" fill-opacity="0.843137" d="M292 317h1v1h-1zM289 318h1v1h-1z"/>
    <path fill="#C66338" fill-opacity="0.070588" d="M302 32h1v1h-1zM326 41h1v1h-1z"/>
    <path fill="#C65D3B" fill-opacity="0.654902" d="M337 53h1v1h-1zM33 313h1v1h-1z"/>
    <path fill="#D08468" fill-opacity="0.74902" d="M283 319h1v1h-1zM286 319h1v1h-1z"/>
    <path fill="#C55C39" fill-opacity="0.380392" d="M34 318h1v1h-1zM35 321h1v1h-1z"/>
    <path fill="#C55D3B" fill-opacity="0.858824" d="M33 311h1v1h-1zM47 339h1v1h-1z"/>
    <path fill="#C55C39" fill-opacity="0.258824" d="M46 49h1v1h-1zM66 352h1v1h-1z"/>
    <path fill="#C55D3B" fill-opacity="0.470588" d="M43 53h1v1h-1zM32 83h1v1h-1z"/>
    <path fill="#C65C3A" fill-opacity="0.701961" d="M34 317h1v1h-1zM314 351h1v1h-1z"/>
    <path fill="#CD7E62" fill-opacity="0.752941" d="M295 316h1v1h-1zM278 318h1v1h-1z"/>
    <path fill="#E0C4B3" fill-opacity="0.85098" d="M298 313h1v1h-1zM294 316h1v1h-1z"/>
    <path fill="#C55B3B" fill-opacity="0.435294" d="M40 331h1v1h-1zM42 334h1v1h-1z"/>
    <path fill="#C55D3B" fill-opacity="0.890196" d="M40 330h1v1h-1zM61 349h1v1h-1z"/>
    <path fill="#C65C3B" fill-opacity="0.721569" d="M322 347h1v1h-1zM308 353h1v1h-1z"/>
    <path fill="#C55C39" fill-opacity="0.431373" d="M53 43h1v1h-1zM305 354h1v1h-1z"/>
    <path fill="#C55C3A" fill-opacity="0.886275" d="M45 337h1v1h-1zM46 338h1v1h-1z"/>
    <path fill="#C65C3A" fill-opacity="0.917647" d="M42 333h1v1h-1zM53 344h1v1h-1z"/>
    <path fill="#C4583A" fill-opacity="0.101961" d="M60 38h1v1h-1zM345 64h1v1h-1z"/>
    <path fill="#924D35" fill-opacity="0.74902" d="M106 324h1v1h-1zM224 324h1v1h-1z"/>
    <path fill="#C55D3A" fill-opacity="0.921569" d="M37 324h1v1h-1zM59 348h1v1h-1z"/>
    <path fill="#AA5555" fill-opacity="0.011765" d="M35 322h1v1h-1zM301 355h1v1h-1z"/>
    <path fill="#834732" fill-opacity="0.752941" d="M172 324h1v1h-1zM220 324h1v1h-1z"/>
    <path fill="#C35A3C" fill-opacity="0.133333" d="M314 35h1v1h-1zM349 308h1v1h-1z"/>
    <path fill="#C65C3B" fill-opacity="0.709804" d="M38 327h1v1h-1zM303 354h1v1h-1z"/>
    <path fill="#C55D3C" fill-opacity="0.415686" d="M68 35h1v1h-1zM348 75h1v1h-1z"/>
    <path fill="#C65C3B" fill-opacity="0.639216" d="M340 57h1v1h-1zM328 343h1v1h-1z"/>
    <path fill="#984E36" fill-opacity="0.752941" d="M91 69h1v1h-1zM232 322h1v1h-1z"/>
    <path fill="#B85838" fill-opacity="0.811765" d="M244 290h1v1h-1zM104 324h1v1h-1z"/>
    <path fill="#E1CDC0" fill-opacity="0.894118" d="M275 284h1v1h-1zM299 288h1v1h-1z"/>
    <path fill="#2C2C28" fill-opacity="0.956863" d="M227 277h1v1h-1zM244 292h1v1h-1z"/>
    <path fill="#9B4F36" fill-opacity="0.752941" d="M125 72h1v1h-1zM224 276h1v1h-1z"/>
    <path fill="#C85B36" fill-opacity="0.109804" d="M34 69h1v1h-1zM327 345h1v1h-1z"/>
    <path fill="#D8A791" fill-opacity="0.776471" d="M300 289h1v1h-1zM271 313h1v1h-1z"/>
    <path fill="#8A4934" fill-opacity="0.74902" d="M109 64h1v1h-1zM246 302h1v1h-1z"/>
    <path fill="#A25137" fill-opacity="0.756863" d="M114 65h1v1h-1zM129 78h1v1h-1z"/>
    <path fill="#A55137" fill-opacity="0.760784" d="M229 277h1v1h-1zM246 303h1v1h-1z"/>
    <path fill="#C45D3B" fill-opacity="0.913725" d="M117 66h1v1h-1zM99 323h1v1h-1z"/>
    <path fill="#2F2C29" fill-opacity="0.941176" d="M237 282h1v1h-1zM82 301h1v1h-1z"/>
    <path fill="#C55C3B" fill-opacity="0.517647" d="M32 85h1v1h-1zM309 353h1v1h-1z"/>
    <path fill="#CB7457" fill-opacity="0.764706" d="M303 294h1v1h-1zM266 296h1v1h-1z"/>
    <path fill="#C96B4D" fill-opacity="0.788235" d="M304 297h1v1h-1zM275 317h1v1h-1z"/>
    <path fill="#E0C7B8" fill-opacity="0.866667" d="M290 282h1v1h-1zM267 306h1v1h-1z"/>
    <path fill="#D8A48F" fill-opacity="0.772549" d="M284 281h1v1h-1zM286 281h1v1h-1z"/>
    <path fill="#E0C5B6" fill-opacity="0.858824" d="M302 293h1v1h-1zM302 307h1v1h-1z"/>
    <path fill="#2A2C29" fill-opacity="0.968627" d="M238 283h1v1h-1zM245 296h1v1h-1z"/>
    <path fill="#C45C3B" fill-opacity="0.929412" d="M234 279h1v1h-1zM241 285h1v1h-1z"/>
    <path fill="#C55C3A" fill-opacity="0.85098" d="M57 347h1v1h-1z"/>
    <path fill="#C65C3A" fill-opacity="0.937255" d="M52 343h1v1h-1z"/>
    <path fill="#C65B3A" fill-opacity="0.478431" d="M325 41h1v1h-1z"/>
    <path fill="#C65C3A" fill-opacity="0.831373" d="M48 340h1v1h-1z"/>
    <path fill="#C55D3B" fill-opacity="0.941176" d="M51 342h1v1h-1z"/>
    <path fill="#C55D3A" fill-opacity="0.729412" d="M325 345h1v1h-1z"/>
    <path fill="#C65D3A" fill-opacity="0.458824" d="M52 344h1v1h-1z"/>
    <path fill="#C55D3B" fill-opacity="0.588235" d="M32 90h1v1h-1z"/>
    <path fill="#C55C3A" fill-opacity="0.713725" d="M50 342h1v1h-1z"/>
    <path fill="#C76242" fill-opacity="0.843137" d="M277 282h1v1h-1z"/>
    <path fill="#C65D3A" fill-opacity="0.780392" d="M77 354h1v1h-1z"/>
    <path fill="#C55C3A" fill-opacity="0.596078" d="M304 354h1v1h-1z"/>
    <path fill="#C65D3B" fill-opacity="0.847059" d="M307 353h1v1h-1z"/>
    <path fill="#C65C3A" fill-opacity="0.54902" d="M75 354h1v1h-1z"/>
    <path fill="#D4937B" fill-opacity="0.752941" d="M287 281h1v1h-1z"/>
    <path fill="#C35E3B" fill-opacity="0.168627" d="M298 355h1v1h-1z"/>
    <path fill="#CA603D" fill-opacity="0.113725" d="M299 355h1v1h-1z"/>
    <path fill="#D8AA94" fill-opacity="0.780392" d="M285 281h1v1h-1z"/>
    <path fill="#C55E39" fill-opacity="0.243137" d="M299 32h1v1h-1z"/>
    <path fill="#C65C3B" fill-opacity="0.745098" d="M65 351h1v1h-1z"/>
    <path fill="#C65D3B" fill-opacity="0.898039" d="M66 351h1v1h-1z"/>
    <path fill="#C65D3A" fill-opacity="0.564706" d="M62 350h1v1h-1z"/>
    <path fill="#C55D3A" fill-opacity="0.854902" d="M63 350h1v1h-1z"/>
    <path fill="#C55C3C" fill-opacity="0.4" d="M315 351h1v1h-1z"/>
    <path fill="#C65D3B" fill-opacity="0.67451" d="M71 353h1v1h-1z"/>
    <path fill="#C65D3A" fill-opacity="0.815686" d="M72 353h1v1h-1z"/>
    <path fill="#C65D3A" fill-opacity="0.533333" d="M67 352h1v1h-1z"/>
    <path fill="#C65C3A" fill-opacity="0.443137" d="M70 353h1v1h-1z"/>
    <path fill="#DAAC96" fill-opacity="0.784314" d="M272 314h1v1h-1z"/>
    <path fill="#DEBEAD" fill-opacity="0.831373" d="M297 314h1v1h-1z"/>
    <path fill="#C65D3B" fill-opacity="0.792157" d="M33 312h1v1h-1z"/>
    <path fill="#DCB9A8" fill-opacity="0.819608" d="M299 312h1v1h-1z"/>
    <path fill="#C65D3A" fill-opacity="0.866667" d="M34 316h1v1h-1z"/>
    <path fill="#E5D6CA" fill-opacity="0.933333" d="M268 292h1v1h-1z"/>
    <path fill="#C96A49" fill-opacity="0.8" d="M298 314h1v1h-1z"/>
    <path fill="#C55C3B" fill-opacity="0.929412" d="M34 315h1v1h-1z"/>
    <path fill="#D18C71" fill-opacity="0.74902" d="M266 297h1v1h-1z"/>
    <path fill="#C55D3B" fill-opacity="0.45098" d="M32 307h1v1h-1z"/>
    <path fill="#DAAF9C" fill-opacity="0.792157" d="M266 300h1v1h-1z"/>
    <path fill="#E6DDD0" fill-opacity="0.976471" d="M303 302h1v1h-1z"/>
    <path fill="#CC593F" fill-opacity="0.078431" d="M349 309h1v1h-1z"/>
    <path fill="#D38F77" fill-opacity="0.752941" d="M303 295h1v1h-1z"/>
    <path fill="#DCB4A1" fill-opacity="0.803922" d="M303 296h1v1h-1z"/>
    <path fill="#C55B3C" fill-opacity="0.262745" d="M32 309h1v1h-1z"/>
    <path fill="#E3D0C2" fill-opacity="0.901961" d="M269 290h1v1h-1z"/>
    <path fill="#382F2A" fill-opacity="0.901961" d="M130 82h1v1h-1z"/>
    <path fill="#C65D3A" fill-opacity="0.952941" d="M41 331h1v1h-1z"/>
    <path fill="#BF5F3F" fill-opacity="0.062745" d="M349 77h1v1h-1z"/>
    <path fill="#C2613C" fill-opacity="0.082353" d="M39 330h1v1h-1z"/>
    <path fill="#C85C3D" fill-opacity="0.129412" d="M44 337h1v1h-1z"/>
    <path fill="#C45E3A" fill-opacity="0.27451" d="M54 42h1v1h-1z"/>
    <path fill="#C55C39" fill-opacity="0.227451" d="M327 42h1v1h-1z"/>
    <path fill="#C65C3B" fill-opacity="0.811765" d="M44 336h1v1h-1z"/>
    <path fill="#C55C3B" fill-opacity="0.92549" d="M35 319h1v1h-1z"/>
    <path fill="#BE5B3A" fill-opacity="0.843137" d="M92 319h1v1h-1z"/>
    <path fill="#CE7C60" fill-opacity="0.756863" d="M291 318h1v1h-1z"/>
    <path fill="#C65438" fill-opacity="0.035294" d="M34 319h1v1h-1z"/>
    <path fill="#C45B3A" fill-opacity="0.152941" d="M36 324h1v1h-1z"/>
    <path fill="#C55D3A" fill-opacity="0.717647" d="M37 325h1v1h-1z"/>
    <path fill="#CC7254" fill-opacity="0.768627" d="M281 319h1v1h-1z"/>
    <path fill="#C65C3A" fill-opacity="0.882353" d="M36 322h1v1h-1z"/>
  </g>
</svg>
